<?xml version="1.0" standalone="no"?>
<!DOCTYPE svg PUBLIC "-//W3C//DTD SVG 20010904//EN"
 "http://www.w3.org/TR/2001/REC-SVG-20010904/DTD/svg10.dtd">
<svg version="1.0" xmlns="http://www.w3.org/2000/svg"
 width="2500.000000pt" height="2500.000000pt" viewBox="0 0 2500.000000 2500.000000"
 preserveAspectRatio="xMidYMid meet">

<g transform="translate(0.000000,2500.000000) scale(0.100000,-0.100000)"
fill="#000000" stroke="none">
<path d="M9335 22104 c91 -219 99 -476 25 -825 -146 -692 -574 -1367 -1093
-1725 -548 -378 -1145 -948 -1583 -1509 -408 -523 -761 -1127 -1016 -1735
-323 -774 -442 -1318 -425 -1950 12 -440 94 -864 249 -1280 68 -184 248 -546
353 -710 283 -442 636 -807 1055 -1092 498 -338 1052 -540 1670 -609 147 -16
552 -17 695 -1 944 106 1779 545 2394 1257 335 389 563 796 747 1337 189 554
435 981 801 1390 684 763 1671 1208 2683 1208 738 0 1490 -242 2090 -673 327
-235 660 -572 890 -902 243 -348 439 -761 551 -1162 l34 -122 35 -5 c19 -3 89
-8 154 -12 l119 -6 -6 358 c-7 439 -23 636 -83 1064 -205 1454 -872 2901
-1839 3993 -1130 1275 -2609 2104 -4246 2381 -422 72 -746 99 -1184 99 -476 0
-894 -39 -1326 -123 -131 -25 -127 -25 -135 8 -4 15 -31 86 -60 158 -137 346
-332 622 -589 833 -248 205 -581 343 -884 368 -80 6 -84 5 -76 -13z m-1012
-6256 c-83 -87 -135 -197 -149 -317 l-6 -58 81 -7 c170 -15 293 -70 397 -178
109 -112 173 -248 221 -468 26 -121 26 -488 0 -608 -90 -419 -348 -736 -663
-816 -79 -20 -232 -20 -309 -1 -205 52 -383 210 -495 440 -131 267 -158 591
-75 901 101 377 354 714 742 991 73 52 281 173 297 173 6 0 -13 -24 -41 -52z"/>
<path d="M15260 12925 c-694 -84 -1335 -447 -1916 -1083 -126 -137 -216 -248
-403 -496 -171 -227 -274 -349 -436 -515 -498 -513 -1052 -845 -1670 -1000
-503 -127 -1106 -117 -1552 24 -40 13 -73 22 -73 21 0 -9 192 -153 295 -221
284 -190 571 -305 876 -351 138 -21 418 -20 569 1 568 79 1195 351 2066 895
342 214 582 376 1198 809 514 361 979 561 1508 648 80 14 167 18 388 18 317 0
388 -8 650 -71 590 -144 1188 -512 1643 -1012 64 -71 64 -71 42 63 -58 355
-233 708 -544 1095 -109 136 -344 368 -499 491 -487 390 -1011 619 -1568 684
-153 18 -427 18 -574 0z"/>
<path d="M15886 10769 c-694 -73 -1456 -413 -2286 -1018 -156 -114 -322 -245
-545 -431 -245 -204 -394 -309 -597 -423 -340 -190 -679 -306 -1078 -369 -129
-20 -181 -22 -470 -22 -353 -1 -427 6 -726 65 -627 122 -1332 428 -1898 821
-54 38 -100 67 -102 65 -6 -6 77 -171 149 -297 304 -533 748 -933 1264 -1139
185 -74 354 -119 588 -158 156 -26 674 -26 850 0 734 108 1417 385 2140 870
265 178 496 358 799 626 487 429 905 698 1368 879 427 168 822 244 1263 244
339 0 651 -46 920 -136 72 -24 131 -43 133 -41 2 1 -43 31 -100 66 -360 221
-716 350 -1094 394 -138 16 -443 18 -578 4z"/>
<path d="M16430 9919 c-449 -40 -741 -140 -1044 -356 -248 -178 -507 -332
-846 -502 -215 -109 -621 -293 -673 -306 -49 -13 -28 -22 65 -29 512 -36 1072
96 1505 355 98 58 139 87 298 205 403 299 801 508 1122 589 54 13 123 28 153
32 l55 8 -90 6 c-124 9 -430 8 -545 -2z"/>
<path d="M10740 4684 l0 -876 363 4 c402 5 418 7 557 75 56 27 96 57 156 118
70 69 90 97 133 186 78 161 95 250 95 494 0 171 -3 214 -23 295 -67 286 -260
495 -519 561 -67 17 -112 19 -419 19 l-343 0 0 -876z m743 649 c76 -36 170
-120 216 -192 74 -114 111 -270 111 -461 0 -143 -15 -241 -54 -343 -50 -132
-147 -244 -256 -296 -54 -25 -61 -26 -297 -29 l-243 -3 0 681 0 682 228 -4
227 -3 68 -32z"/>
<path d="M13950 4685 l0 -875 100 0 100 0 0 875 0 875 -100 0 -100 0 0 -875z"/>
<path d="M8000 5420 l0 -130 100 0 100 0 0 130 0 130 -100 0 -100 0 0 -130z"/>
<path d="M8690 5420 l0 -130 100 0 100 0 0 130 0 130 -100 0 -100 0 0 -130z"/>
<path d="M9380 5420 l0 -130 100 0 100 0 0 130 0 130 -100 0 -100 0 0 -130z"/>
<path d="M12884 4965 c-179 -39 -324 -190 -380 -395 -24 -88 -25 -281 -1 -370
67 -252 267 -410 517 -410 181 1 325 70 405 195 29 45 85 181 85 206 0 5 -48
9 -110 9 -107 0 -110 -1 -110 -22 0 -32 -43 -119 -71 -145 -42 -39 -97 -55
-185 -55 -134 0 -225 52 -281 159 -29 55 -53 154 -53 219 l0 29 398 3 397 2
-1 74 c-5 346 -281 573 -610 501z m220 -176 c57 -15 130 -93 150 -160 9 -29
16 -59 16 -66 0 -10 -55 -13 -280 -13 l-280 0 6 28 c17 70 72 146 131 184 75
46 152 54 257 27z"/>
<path d="M14944 4970 c-127 -23 -226 -100 -288 -223 -19 -40 -38 -84 -42 -99
l-6 -28 109 0 109 0 13 36 c33 90 109 135 232 137 94 1 158 -26 196 -84 34
-52 47 -110 28 -125 -20 -15 -233 -77 -371 -108 -129 -28 -198 -60 -264 -122
-62 -58 -92 -127 -98 -224 -8 -138 56 -241 186 -303 50 -23 81 -31 150 -35
140 -7 249 25 358 108 l52 39 5 -40 c3 -22 12 -51 21 -64 16 -24 20 -25 131
-25 l115 0 -33 46 -32 46 -5 401 c-5 391 -6 403 -28 451 -48 104 -121 167
-232 200 -66 20 -236 29 -306 16z m366 -677 c0 -111 -6 -127 -84 -206 -71 -73
-139 -100 -261 -105 -97 -4 -102 -3 -132 22 -46 39 -69 106 -54 156 14 47 53
95 94 116 26 14 389 110 425 113 9 1 12 -25 12 -96z"/>
<path d="M15853 4958 c16 -39 237 -587 344 -853 121 -302 124 -311 113 -350
-7 -22 -29 -56 -50 -77 -35 -36 -42 -38 -98 -38 -33 0 -79 7 -102 15 -23 8
-44 15 -47 15 -2 0 -2 -44 -1 -97 3 -94 4 -98 29 -110 48 -23 159 -27 225 -8
112 32 176 123 289 412 26 65 134 337 241 604 107 267 194 488 194 492 0 4
-48 6 -106 5 l-105 -3 -19 -45 c-11 -25 -62 -155 -115 -290 -199 -507 -220
-560 -225 -560 -3 0 -27 60 -55 132 -78 204 -83 220 -194 502 l-105 266 -109
0 c-83 0 -108 -3 -104 -12z"/>
<path d="M8000 4385 l0 -575 100 0 100 0 0 575 0 575 -100 0 -100 0 0 -575z"/>
<path d="M8690 4385 l0 -575 100 0 100 0 0 575 0 575 -100 0 -100 0 0 -575z"/>
<path d="M9380 4385 l0 -575 100 0 100 0 0 575 0 575 -100 0 -100 0 0 -575z"/>
<path d="M10050 3925 l0 -115 115 0 116 0 -3 113 -3 112 -112 3 -113 3 0 -116z"/>
</g>
</svg>
